<svg width="36" height="36" viewBox="0 0 36 36" fill="none" xmlns="http://www.w3.org/2000/svg">
<path d="M11.2188 27.5218L15.8687 31.1218C16.4687 31.7218 17.8187 32.0218 18.7187 32.0218H24.4187C26.2187 32.0218 28.1687 30.6718 28.6187 28.8718L32.2187 17.9218C32.9687 15.8218 31.6187 14.0218 29.3687 14.0218H23.3687C22.4687 14.0218 21.7187 13.2718 21.8687 12.2218L22.6187 7.42178C22.9187 6.07178 22.0187 4.57178 20.6687 4.12178C19.4687 3.67178 17.9687 4.27178 17.3687 5.17178L11.2188 14.3218" stroke="#704E98" stroke-width="1.5" stroke-miterlimit="10"/>
<path d="M3.57031 27.5266V12.8266C3.57031 10.7266 4.47031 9.97656 6.57031 9.97656H8.07031C10.1703 9.97656 11.0703 10.7266 11.0703 12.8266V27.5266C11.0703 29.6266 10.1703 30.3766 8.07031 30.3766H6.57031C4.47031 30.3766 3.57031 29.6266 3.57031 27.5266Z" stroke="#704E98" stroke-width="1.5" stroke-linecap="round" stroke-linejoin="round"/>
</svg>
