<svg width="28" height="28" viewBox="0 0 28 28" fill="none" xmlns="http://www.w3.org/2000/svg">
<g clip-path="url(#clip0_3358_2342)">
<path d="M7.1002 27.9009C6.01718 27.8888 4.94434 27.6902 3.92878 27.3137C3.18718 27.0396 2.51621 26.6032 1.96494 26.0364C1.39664 25.4863 0.959599 24.8151 0.686275 24.0729C0.310128 23.0573 0.111776 21.9846 0.0999216 20.9017C0.0167451 19.1015 0 18.5615 0 14C0 9.43847 0.0183922 8.90043 0.099098 7.09882C0.11239 6.01637 0.310987 4.94419 0.686275 3.92878C0.96093 3.18706 1.39735 2.51582 1.96384 1.96384C2.51444 1.39606 3.18572 0.959418 3.92796 0.686275C4.94352 0.309816 6.01635 0.111184 7.09937 0.099098C8.90016 0.0167451 9.44094 0 14 0C18.5591 0 19.0996 0.0183922 20.9012 0.099098C21.9839 0.112297 23.0564 0.310895 24.072 0.686275C24.814 0.959778 25.4851 1.39626 26.0359 1.96357C26.6034 2.51458 27.04 3.18585 27.3137 3.92796C27.6903 4.9435 27.889 6.01634 27.9012 7.09937C27.9835 8.90098 28.0003 9.44039 28.0003 14.0005C28.0003 18.5607 27.9835 19.1001 27.9012 20.9017C27.8881 21.9846 27.6894 23.0572 27.3137 24.0729C27.0296 24.8094 26.5943 25.4783 26.036 26.0365C25.4777 26.5947 24.8087 27.0297 24.072 27.3137C23.0565 27.6903 21.9837 27.889 20.9006 27.9012C19.1007 27.9835 18.5596 28.0003 13.9995 28.0003C9.43929 28.0003 8.89988 27.9844 7.09992 27.9012" fill="url(#paint0_radial_3358_2342)"/>
<path d="M7.1002 27.9009C6.01718 27.8888 4.94434 27.6902 3.92878 27.3137C3.18718 27.0396 2.51621 26.6032 1.96494 26.0364C1.39664 25.4863 0.959599 24.8151 0.686275 24.0729C0.310128 23.0573 0.111776 21.9846 0.0999216 20.9017C0.0167451 19.1015 0 18.5615 0 14C0 9.43847 0.0183922 8.90043 0.099098 7.09882C0.11239 6.01637 0.310987 4.94419 0.686275 3.92878C0.96093 3.18706 1.39735 2.51582 1.96384 1.96384C2.51444 1.39606 3.18572 0.959418 3.92796 0.686275C4.94352 0.309816 6.01635 0.111184 7.09937 0.099098C8.90016 0.0167451 9.44094 0 14 0C18.5591 0 19.0996 0.0183922 20.9012 0.099098C21.9839 0.112297 23.0564 0.310895 24.072 0.686275C24.814 0.959778 25.4851 1.39626 26.0359 1.96357C26.6034 2.51458 27.04 3.18585 27.3137 3.92796C27.6903 4.9435 27.889 6.01634 27.9012 7.09937C27.9835 8.90098 28.0003 9.44039 28.0003 14.0005C28.0003 18.5607 27.9835 19.1001 27.9012 20.9017C27.8881 21.9846 27.6894 23.0572 27.3137 24.0729C27.0296 24.8094 26.5943 25.4783 26.036 26.0365C25.4777 26.5947 24.8087 27.0297 24.072 27.3137C23.0565 27.6903 21.9837 27.889 20.9006 27.9012C19.1007 27.9835 18.5596 28.0003 13.9995 28.0003C9.43929 28.0003 8.89988 27.9844 7.09992 27.9012" fill="url(#paint1_radial_3358_2342)"/>
<path d="M10.5602 14.0577C10.5603 13.3719 10.7637 12.7015 11.1447 12.1314C11.5258 11.5612 12.0674 11.1168 12.701 10.8544C13.3346 10.5921 14.0318 10.5235 14.7044 10.6573C15.377 10.7912 15.9947 11.1215 16.4796 11.6065C16.9645 12.0915 17.2946 12.7093 17.4283 13.382C17.562 14.0546 17.4933 14.7518 17.2308 15.3853C16.9682 16.0189 16.5237 16.5603 15.9535 16.9412C15.3832 17.3222 14.7128 17.5254 14.027 17.5253C13.1075 17.5252 12.2256 17.1597 11.5755 16.5095C10.9253 15.8592 10.5601 14.9772 10.5602 14.0577ZM8.68559 14.0577C8.68559 15.1141 8.99886 16.1468 9.58578 17.0252C10.1727 17.9036 11.0069 18.5882 11.9829 18.9925C12.9589 19.3968 14.0329 19.5026 15.0691 19.2965C16.1052 19.0904 17.0569 18.5817 17.8039 17.8346C18.551 17.0876 19.0597 16.1359 19.2658 15.0998C19.4719 14.0636 19.3661 12.9896 18.9618 12.0136C18.5575 11.0376 17.8729 10.2034 16.9945 9.61648C16.1161 9.02955 15.0834 8.71628 14.027 8.71628C13.3255 8.71625 12.631 8.85439 11.9829 9.1228C11.3348 9.39122 10.746 9.78466 10.25 10.2807C9.75397 10.7767 9.36053 11.3655 9.09211 12.0136C8.82369 12.6617 8.68555 13.3562 8.68559 14.0577ZM18.3316 8.50464C18.3315 8.75151 18.4046 8.99287 18.5416 9.19819C18.6787 9.40352 18.8736 9.56359 19.1016 9.65816C19.3296 9.75273 19.5806 9.77757 19.8228 9.72951C20.0649 9.68146 20.2874 9.56267 20.462 9.38818C20.6366 9.2137 20.7556 8.99135 20.8039 8.74924C20.8522 8.50714 20.8275 8.25615 20.7332 8.02803C20.6388 7.79991 20.4789 7.60491 20.2737 7.46766C20.0685 7.33042 19.8272 7.2571 19.5803 7.257C19.2494 7.25714 18.9321 7.38862 18.6981 7.62255C18.464 7.85648 18.3319 8.17374 18.3316 8.50464ZM9.82508 22.525C9.16546 22.5177 8.51201 22.397 7.89335 22.1681C7.44468 21.9952 7.0372 21.7302 6.69713 21.3903C6.35705 21.0503 6.09192 20.643 5.9188 20.1944C5.6898 19.5757 5.56908 18.9223 5.56194 18.2626C5.51143 17.1662 5.50155 16.8368 5.50155 14.0591C5.50155 11.2813 5.51253 10.9527 5.56194 9.85523C5.56994 9.19569 5.69063 8.54237 5.9188 7.9235C6.09172 7.4747 6.35677 7.06711 6.69687 6.72702C7.03696 6.38693 7.44454 6.12187 7.89335 5.94895C8.51199 5.71995 9.16545 5.59924 9.82508 5.59209C10.9215 5.54158 11.2509 5.5317 14.0275 5.5317C16.8042 5.5317 17.1339 5.54241 18.2314 5.59237C18.8909 5.60037 19.5442 5.72106 20.1631 5.94923C20.6119 6.12217 21.0195 6.38722 21.3596 6.72731C21.6997 7.0674 21.9647 7.47498 22.1377 7.92378C22.3667 8.54242 22.4874 9.19588 22.4945 9.85551C22.545 10.9535 22.5549 11.2813 22.5549 14.0593C22.5549 16.8374 22.5448 17.1657 22.4945 18.2632C22.4868 18.9228 22.3661 19.5761 22.1377 20.1949C21.9645 20.6435 21.6994 21.0509 21.3593 21.3908C21.0193 21.7307 20.6118 21.9957 20.1631 22.1686C19.5445 22.3976 18.891 22.5184 18.2314 22.5255C17.135 22.576 16.8056 22.5859 14.0275 22.5859C11.2495 22.5859 10.9212 22.5752 9.82508 22.525ZM9.73888 3.71911C8.87578 3.73608 8.02181 3.89944 7.21339 4.20225C6.52231 4.46945 5.8947 4.87811 5.37078 5.40203C4.84686 5.92595 4.4382 6.55356 4.171 7.24464C3.86824 8.05307 3.70488 8.90703 3.68786 9.77013C3.63653 10.8792 3.625 11.2338 3.625 14.0588C3.625 16.8838 3.6368 17.2382 3.68786 18.3475C3.70487 19.2106 3.86823 20.0645 4.171 20.873C4.43821 21.564 4.84688 22.1916 5.37079 22.7155C5.89471 23.2395 6.52232 23.6481 7.21339 23.9153C8.02185 24.218 8.87579 24.3814 9.73888 24.3985C10.8485 24.449 11.2026 24.4613 14.0275 24.4613C16.8525 24.4613 17.2069 24.4495 18.3162 24.3985C19.1793 24.3814 20.0333 24.2181 20.8417 23.9153C21.5328 23.6481 22.1604 23.2395 22.6843 22.7155C23.2082 22.1916 23.6169 21.564 23.8841 20.873C24.1873 20.0646 24.3506 19.2106 24.3672 18.3475C24.4177 17.2376 24.4293 16.8838 24.4293 14.0588C24.4293 11.2338 24.4175 10.8794 24.3672 9.77013C24.3503 8.90703 24.1869 8.05306 23.8841 7.24464C23.6169 6.55369 23.2083 5.92617 22.6846 5.40227C22.1608 4.87837 21.5334 4.46963 20.8425 4.20225C20.0342 3.89925 19.1802 3.73588 18.317 3.71911C17.2077 3.66833 16.8534 3.65625 14.0289 3.65625C11.2045 3.65625 10.8487 3.66805 9.73888 3.71911Z" fill="white"/>
</g>
<defs>
<radialGradient id="paint0_radial_3358_2342" cx="0" cy="0" r="1" gradientUnits="userSpaceOnUse" gradientTransform="translate(1.81204 27.3867) scale(35.5496 35.5496)">
<stop offset="0.09" stop-color="#FA8F21"/>
<stop offset="0.78" stop-color="#D82D7E"/>
</radialGradient>
<radialGradient id="paint1_radial_3358_2342" cx="0" cy="0" r="1" gradientUnits="userSpaceOnUse" gradientTransform="translate(19.3947 26.4875) scale(31.284 31.284)">
<stop offset="0.64" stop-color="#8C3AAA" stop-opacity="0"/>
<stop offset="1" stop-color="#8C3AAA"/>
</radialGradient>
<clipPath id="clip0_3358_2342">
<rect width="28" height="28" fill="white"/>
</clipPath>
</defs>
</svg>
