<svg width="36" height="36" viewBox="0 0 36 36" fill="none" xmlns="http://www.w3.org/2000/svg">
<path d="M14.5469 20.4031C14.5469 21.7531 15.5969 22.8031 16.9469 22.8031H19.4969C20.5469 22.8031 21.5969 21.9031 21.5969 20.7031C21.5969 19.3531 20.9969 18.9031 20.2469 18.6031L16.0469 17.1031C14.9969 16.9531 14.5469 16.5031 14.5469 15.3031C14.5469 14.1031 15.4469 13.2031 16.6469 13.2031H19.3469C20.6969 13.2031 21.7469 14.2531 21.7469 15.6031" stroke="#704E98" stroke-width="1.5" stroke-linecap="round" stroke-linejoin="round"/>
<path d="M18 11.7031V24.3031" stroke="#704E98" stroke-width="1.5" stroke-linecap="round" stroke-linejoin="round"/>
<path d="M18 33C26.2843 33 33 26.2843 33 18C33 9.71573 26.2843 3 18 3C9.71573 3 3 9.71573 3 18C3 26.2843 9.71573 33 18 33Z" stroke="#704E98" stroke-width="1.5" stroke-miterlimit="10" stroke-linecap="round" stroke-linejoin="round"/>
</svg>
