<svg width="19" height="18" viewBox="0 0 19 18" fill="none" xmlns="http://www.w3.org/2000/svg">
<path d="M17.4531 12.5582V3.50569C17.4531 2.60569 16.7181 1.93819 15.8256 2.01319H15.7806C14.2056 2.14819 11.8131 2.95069 10.4781 3.79069L10.3506 3.87319C10.1331 4.00819 9.77313 4.00819 9.55563 3.87319L9.36813 3.76069C8.03313 2.92819 5.64812 2.13319 4.07312 2.00569C3.18062 1.93069 2.45312 2.60569 2.45312 3.49819V12.5582C2.45312 13.2782 3.03813 13.9532 3.75813 14.0432L3.97563 14.0732C5.60313 14.2907 8.11563 15.1157 9.55563 15.9032L9.58563 15.9182C9.78813 16.0307 10.1106 16.0307 10.3056 15.9182C11.7456 15.1232 14.2656 14.2907 15.9006 14.0732L16.1481 14.0432C16.8681 13.9532 17.4531 13.2782 17.4531 12.5582Z" stroke="#704E98" stroke-width="1.5" stroke-linecap="round" stroke-linejoin="round"/>
<path d="M9.95312 4.11719V15.3672" stroke="#704E98" stroke-width="1.5" stroke-linecap="round" stroke-linejoin="round"/>
<path d="M6.76562 6.36719H5.07812" stroke="#704E98" stroke-width="1.5" stroke-linecap="round" stroke-linejoin="round"/>
<path d="M7.32812 8.61719H5.07812" stroke="#704E98" stroke-width="1.5" stroke-linecap="round" stroke-linejoin="round"/>
</svg>
